HIERARCHY
ROOT Hips
{
  OFFSET 196.326 95.9168 97.7182
  CHANNELS 6 Xposition Yposition Zposition Zrotation Xrotation Yrotation
  JOINT LeftUpLeg
  {
    OFFSET 8.64259 1.95398 -2.38835
    CHANNELS 3 Zrotation Xrotation Yrotation
    JOINT LeftLeg
    {
      OFFSET 43.7702 0 0
      CHANNELS 3 Zrotation Xrotation Yrotation
      JOINT LeftFoot
      {
        OFFSET 40.6238 0 0
        CHANNELS 3 Zrotation Xrotation Yrotation
        JOINT LeftToeBase
        {
          OFFSET 12.7242 0 0
          CHANNELS 3 Zrotation Xrotation Yrotation
          End Site
          {
            OFFSET 0 0 0
          }
        }
      }
    }
  }
  JOINT RightUpLeg
  {
    OFFSET -8.2249 1.95398 -2.59336
    CHANNELS 3 Zrotation Xrotation Yrotation
    JOINT RightLeg
    {
      OFFSET 43.5653 0 0
      CHANNELS 3 Zrotation Xrotation Yrotation
      JOINT RightFoot
      {
        OFFSET 40.6238 0 0
        CHANNELS 3 Zrotation Xrotation Yrotation
        JOINT RightToeBase
        {
          OFFSET 12.7242 0 0
          CHANNELS 3 Zrotation Xrotation Yrotation
          End Site
          {
            OFFSET 0 0 0
          }
        }
      }
    }
  }
  JOINT Spine
  {
    OFFSET 0.165834 0.87714 6.61349
    CHANNELS 3 Zrotation Xrotation Yrotation
    JOINT Spine1
    {
      OFFSET 7.38963 1.71661e-005 0
      CHANNELS 3 Zrotation Xrotation Yrotation
      JOINT Spine2
      {
        OFFSET 11.9445 1.14441e-005 0
        CHANNELS 3 Zrotation Xrotation Yrotation
        JOINT Spine3
        {
          OFFSET 14.7254 4.19617e-005 0
          CHANNELS 3 Zrotation Xrotation Yrotation
          JOINT Spine4
          {
            OFFSET 10.9679 0 0
            CHANNELS 3 Zrotation Xrotation Yrotation
            JOINT RightShoulder
            {
              OFFSET 2.46616 -1.6653 3.69651
              CHANNELS 3 Zrotation Xrotation Yrotation
              JOINT RightArm
              {
                OFFSET 13.0012 0 0
                CHANNELS 3 Zrotation Xrotation Yrotation
                JOINT RightForeArm
                {
                  OFFSET 28.7848 1.52588e-005 0
                  CHANNELS 3 Zrotation Xrotation Yrotation
                  JOINT RightHand
                  {
                    OFFSET 26.5688 1.52588e-005 0
                    CHANNELS 3 Zrotation Xrotation Yrotation
                    End Site
                    {
                      OFFSET 0 0 0
                    }
                  }
                }
              }
            }
            JOINT LeftShoulder
            {
              OFFSET 2.38034 -1.29275 -3.75231
              CHANNELS 3 Zrotation Xrotation Yrotation
              JOINT LeftArm
              {
                OFFSET 16.3182 6.10351e-005 0
                CHANNELS 3 Zrotation Xrotation Yrotation
                JOINT LeftForeArm
                {
                  OFFSET 27.0901 0 0
                  CHANNELS 3 Zrotation Xrotation Yrotation
                  JOINT LeftHand
                  {
                    OFFSET 24.5451 1.52588e-005 0
                    CHANNELS 3 Zrotation Xrotation Yrotation
                    End Site
                    {
                      OFFSET 0 0 0
                    }
                  }
                }
              }
            }
            JOINT Neck
            {
              OFFSET 5.0226 -0.0266342 0
              CHANNELS 3 Zrotation Xrotation Yrotation
              JOINT Head
              {
                OFFSET 6.69363 2.86102e-005 0
                CHANNELS 3 Zrotation Xrotation Yrotation
                End Site
                {
                  OFFSET 0 0 0
                }
              }
            }
          }
        }
      }
    }
  }
}
MOTION
Frames:	18
Frame Time:	0.0416667
-123.807 83.137 -156.785 88.5822 -37.9876 90.3774 68.0751 30.7128 61.7321 -175.223 56.9201 108.809 46.5806 -9.18642 24.4086 43.7234 -24.2318 117.102 179.276 58.5167 93.5537 -52.8509 8.30335 2.08916 61.1028 2.55407 1.85952 36.06 0.469788 16.894 -1.13461 7.7675 -89.7558 11.3477 -2.14399 0.700016 -0.321694 -2.1111 0.793724 -22.8712 -2.25519 0.0229804 -2.85854 -2.2552 0.022979 75.7578 -52.3716 -121.029 28.8773 -0.184522 49.2412 -0.774671 -6.83172 -19.4206 -3.98526 -0.36034 4.67068 -95.6785 -34.6866 64.8024 -14.4029 -16.6733 -12.6625 14.2095 -5.38075 -112.183 26.2618 3.92362 11.2866 20.4923 2.06159 -6.7985 -3.38689 4.31924 5.58823 
-113.891 74.5931 -148.515 85.6162 -35.3011 88.0177 32.7384 53.9855 74.8079 -93.2753 70.3652 12.7377 51.8832 -2.81017 35.8997 44.0846 -20.5862 122.873 -179.827 66.6822 89.645 -51.8112 6.06069 2.20393 54.1867 4.06595 3.20173 39.3178 1.0681 14.009 -1.25087 7.54382 -89.9148 11.7899 -2.44756 0.428578 0.121085 -2.42632 0.535938 -22.4321 -2.46317 -0.327287 -2.4195 -2.46318 -0.327288 76.6834 -53.256 -119.343 28.289 -1.21515 38.7084 -0.250634 -5.47186 -21.5688 -5.71061 -0.505053 4.89828 -98.1332 -36.5246 61.4239 -18.7655 -5.6977 -13.6363 14.1115 1.3261 -92.8976 24.4258 3.17761 9.28046 23.8978 1.49757 -5.73967 -5.14077 3.49416 5.01438 
-102.978 70.3168 -139.396 81.4262 -36.5788 88.8529 90.3003 43.3735 54.0192 -178.115 84.2247 89.2644 106.422 -11.1117 63.6124 34.759 8.58501 71.0948 157.585 72.9369 109.279 -72.8848 4.11535 8.30641 62.9819 -2.81611 -1.31458 26.701 -1.57594 17.5736 -1.1811 7.05988 -90.8148 12.7394 -2.73515 -1.30431 1.07077 -2.78989 -1.18261 -21.4756 -2.21674 -2.0662 -1.46291 -2.21676 -2.0662 74.9405 -55.0531 -121.003 21.2787 -7.49699 25.0894 2.91804 -7.19793 -26.0664 -7.00784 -0.509513 2.89832 -101.146 -38.8193 57.5543 -21.407 7.88603 -12.1986 7.4101 2.67164 -57.6245 23.3911 1.95844 4.57198 26.3296 4.50535 -1.33267 -7.32204 4.77331 4.77001 
-89.3565 71.9428 -129.342 84.6583 -43.789 90.9043 128.198 37.7411 65.4094 71.6351 63.6922 179.142 131.913 -0.168991 76.7075 33.337 3.37864 42.1554 165.566 63.3193 112.206 -84.6628 8.72133 0.597831 78.9656 -3.95213 -1.76287 30.3594 -0.754233 16.9812 -0.353223 7.53476 -90.8546 11.795 -1.10437 -1.58917 0.12351 -1.17322 -1.53904 -22.4047 -0.575822 -1.84753 -2.39207 -0.575813 -1.84753 73.5975 -52.0107 -124.242 19.4636 -11.0007 8.19933 2.40821 -6.61483 -37.4453 -14.002 -0.974638 3.00857 -106.703 -41.2383 50.1244 -21.9046 13.4082 -6.7324 0.728921 7.88374 -30.8035 17.0953 1.69163 6.03704 28.0836 5.47596 1.41248 -6.61202 4.69505 2.62992 
-74.1554 83.8284 -115.558 83.4165 -45.2018 86.1263 131.774 46.5128 85.021 76.5045 45.7125 173.228 101.995 -6.61234 69.2277 33.1728 1.34806 54.1916 178.137 39.744 99.8312 -69.2545 8.13649 -2.1897 81.3048 -2.51437 -1.1641 39.6701 1.38875 17.9289 0.445588 7.47476 -90.2199 11.9358 0.782294 -0.522745 0.265114 0.758527 -0.556662 -22.2727 0.903269 -0.263443 -2.2601 0.903265 -0.26345 75.6245 -50.0638 -122.262 17.2596 -11.007 -3.22313 -3.77027 -7.44414 -56.6934 -18.6978 -0.840317 0.369331 -106.733 -42.2316 50.6136 -29.0329 11.8713 4.08638 0.97217 16.0931 -21.7363 13.7551 1.91339 9.64234 25.0267 2.10707 -0.0551673 -4.92592 2.06837 2.8787 
-61.5277 97.5913 -104.662 86.0774 -46.8672 82.5651 144.507 52.2756 95.3883 95.3132 34.0631 170.977 62.179 -26.5442 55.9797 33.0915 -6.43204 70.9772 -179.471 19.2566 91.2901 -46.4205 4.06177 -4.78952 55.0577 1.93044 1.79072 27.2682 -2.31088 25.099 0.925442 7.48564 -89.4393 11.8979 2.1044 0.892694 0.22845 2.14165 0.799169 -22.3144 1.73885 1.48399 -2.3018 1.73883 1.48398 78.2144 -47.3509 -119.677 15.8625 -10.4049 -9.4371 -13.0989 -6.00305 -72.7245 -20.1671 -1.27287 2.62605 -104.157 -41.999 54.3941 -34.3292 10.7764 17.8182 -0.350896 18.1696 -17.3611 9.62282 1.21849 8.04858 16.6074 0.137356 0.417207 -1.72718 0.070857 1.21763 
-49.2985 104.584 -95.5875 84.9832 -50.4616 81.1226 146.56 53.8588 100.87 112.515 37.0428 169.914 51.3307 -26.7989 49.832 32.9391 -7.45062 70.5533 -179.725 15.2395 91.0995 -36.8908 -6.02922 -4.88254 49.323 3.49244 3.1231 17.7439 -2.11276 8.82641 1.38565 7.37604 -89.4043 12.1131 3.03616 0.853867 0.445464 3.07079 0.71929 -22.1102 2.63912 1.72737 -2.09756 2.63911 1.72737 81.9822 -42.2733 -116.034 17.032 -9.16795 -14.0346 -19.0633 0.71143 -86.7475 -16.0096 -1.28371 4.51849 -102.271 -40.5087 56.5813 -40.1379 7.86877 30.3183 -1.51485 14.0224 -14.5666 5.4712 0.591022 5.54677 15.8028 0.374236 4.03832 -3.41906 -0.776977 -0.859334 
-37.102 106.455 -85.9345 83.7423 -53.2587 79.9235 144.575 49.342 102.467 134.127 44.6094 164.679 48.8522 -26.5876 45.6668 33.1497 -6.41501 71.3854 179.077 15.7339 90.8988 -27.6879 2.31391 -0.851887 51.8135 3.18042 2.7731 24.3517 -1.83712 14.7561 1.70388 7.31312 -89.3494 12.2382 3.69475 0.884714 0.572348 3.73009 0.721018 -21.9951 3.2579 1.95521 -1.98242 3.2579 1.95522 83.2419 -40.7603 -114.617 15.7193 -6.79025 -16.5683 -21.0984 6.73141 -97.0252 -15.8137 -1.26954 4.53006 -99.6987 -36.9903 59.0281 -45.5254 4.11641 39.836 -2.19791 8.59264 -11.8447 2.79953 0.308204 4.4175 17.1754 0.217439 4.17673 -5.09132 -1.01576 -1.59276 
-24.5363 103.792 -75.9479 84.1524 -53.6326 79.1759 136.707 43.7607 103.898 157.991 51.7732 154.519 45.7814 -26.2809 39.9119 33.2012 -6.7902 72.1731 178.044 15.8897 90.354 -25.9175 4.1014 0.7206 55.0966 3.42009 2.69088 29.3404 -0.680573 11.8471 1.70406 7.35126 -89.1929 12.155 3.76914 1.19365 0.489157 3.81798 1.0264 -22.076 3.23605 2.2721 -2.06331 3.23605 2.2721 83.5852 -40.4149 -114.192 16.8371 -2.50733 -17.564 -23.1456 8.55705 -106.67 -16.338 -1.4765 5.88349 -98.5986 -33.8474 59.3724 -47.7267 0.9864 46.9427 -2.18374 4.63598 -9.4156 -0.516127 0.0290707 2.88281 18.0993 0.386383 4.43296 -5.88343 -0.95072 -1.59669 
-12.3113 95.6708 -66.5151 89.0481 -54.8416 82.6627 127.232 38.778 107.282 171.374 57.1423 145.291 44.1056 -26.2107 35.773 32.8878 -8.21667 70.855 178.398 14.8458 91.3087 -40.5457 4.51093 -1.46993 68.8807 0.056722 0.290154 37.3059 0.811841 18.6171 1.81683 7.63495 -89.2403 11.5887 3.96992 1.10353 -0.0764851 4.01463 0.927476 -22.6469 3.45459 2.24675 -2.6343 3.4546 2.24675 82.5738 -41.3293 -115.476 17.238 0.879055 -15.3822 -25.8107 11.5638 -111.791 -14.4675 -1.39926 6.61279 -99.1935 -34.2396 58.5537 -45.2265 0.368084 51.1235 -2.2329 2.6434 -6.55417 -2.11472 -0.112009 3.29635 17.3407 0.812471 5.69329 -3.89345 -0.905697 -1.7342 
0.724499 87.8083 -56.3301 92.2728 -54.1959 85.7979 120.178 35.3696 109.351 174.781 62.1029 140.918 44.7811 -26.598 34.1503 32.2316 -14.8651 71.2783 177.885 4.37541 92.9429 -48.8375 12.3324 -5.48263 89.9309 -2.54104 -2.65929 46.6768 3.20647 21.7788 1.55293 7.91111 -89.3158 11.0385 3.40875 1.03408 -0.628275 3.45095 0.882889 -23.1885 2.94031 2.0114 -3.17582 2.94032 2.01141 80.6742 -43.8082 -117.458 17.0879 -1.4433 -14.3367 -23.7057 8.22337 -107.468 -16.6957 -1.26953 4.13961 -98.9142 -39.1324 61.3004 -41.0975 1.08386 45.1511 -1.45176 0.4891 -2.40724 10.4495 1.38896 8.74016 21.2506 1.89092 4.92243 -4.33899 0.225428 -0.177566 
15.7997 84.3528 -45.2413 81.8789 -53.4818 80.4542 122.796 40.0415 110.355 165.423 66.1401 142.631 50.1949 -26.0342 37.979 31.8486 -13.7073 68.4974 177.01 0.0119659 90.0308 -51.1237 1.96582 -5.54364 77.6879 -0.669411 -1.10066 58.1276 5.73407 20.1805 1.79598 7.13921 -89.4695 12.5932 3.8204 0.607957 0.927857 3.84348 0.438968 -21.6452 3.46087 1.72932 -1.63252 3.46088 1.72932 78.5937 -46.5509 -119.467 21.2137 -4.2595 -2.87764 -16.3632 0.555421 -90.757 -16.6341 -0.945052 1.61688 -99.2358 -42.7867 62.3485 -37.0831 1.86874 29.8409 0.0212825 -2.96944 -8.94405 18.9103 2.94441 10.2845 25.0393 0.726058 3.21704 -7.25821 -0.446187 0.141072 
29.0046 81.2144 -34.9776 80.4222 -50.8782 79.9862 136.279 49.4955 100.946 131.133 68.045 159.044 61.6701 -21.6208 50.2874 33.9877 3.93902 59.6885 177.518 7.70766 86.678 -72.8768 0.848931 -6.03352 47.1583 4.41905 4.20517 36.1111 1.8116 23.0966 1.37145 6.90724 -89.2838 13.0472 3.06647 1.05609 1.37933 3.10998 0.919996 -21.1728 2.60738 1.92921 -1.16012 2.60737 1.9292 77.1786 -49.2579 -120.362 25.2431 -8.66675 5.61156 -0.658896 -1.08173 -59.1118 -13.7005 -0.552696 -0.554571 -102.744 -43.7745 57.3968 -33.6144 2.15144 15.1344 -0.732921 -10.6529 -21.4094 5.5198 0.0673937 0.288922 28.0511 -0.241167 -1.09187 -9.17173 0.162907 1.15231 
40.015 81.5358 -26.7272 81.9869 -45.7668 84.4923 140.121 45.3966 92.7753 122.304 66.7107 161.515 63.9114 -19.2142 53.7876 35.1389 9.38787 60.3852 175.905 30.8117 92.2277 -108.644 1.60051 -5.21996 34.7333 6.29112 5.52357 21.4532 -2.17749 12.3977 0.40887 7.01461 -89.5723 12.8388 1.01685 0.735157 1.16811 1.04823 0.689672 -21.3673 0.748924 1.00677 -1.3546 0.748906 1.00676 74.9898 -51.0712 -122.71 27.8625 -9.81151 14.7154 3.72407 -4.67962 -33.9266 -11.1236 -0.647493 1.48102 -104.09 -40.3351 53.6485 -27.2337 4.82924 -2.06777 2.15141 0.192469 -38.8484 22.1519 2.18737 5.48505 27.0185 0.234234 -3.65152 -9.23686 1.54095 1.9845 
51.6579 90.2321 -18.8385 84.0847 -45.7348 89.7045 145.297 26.2175 82.3916 150.433 61.1313 149.349 54.2777 -24.1716 44.6722 34.1957 4.41185 65.3211 166.201 53.8382 101.378 -118.859 13.0436 -5.57215 37.2767 1.79456 2.36514 18.7062 -2.42194 11.7085 -0.191329 7.19142 -90.1824 12.4904 -0.467076 -0.310431 0.819459 -0.480276 -0.289582 -21.7158 -0.352186 -0.436451 -1.70319 -0.352176 -0.436456 75.5907 -52.1642 -121.36 28.3234 -7.33061 27.4577 -2.18699 -18.0848 -24.9042 -2.38306 -0.351632 6.40552 -100.975 -39.2396 58.0292 -23.6575 -3.57933 -6.76842 14.0006 3.06807 -68.0147 23.6257 2.74377 7.86313 24.8691 3.57354 -2.40322 -9.1962 4.21401 2.94897 
62.8026 99.7151 -9.60735 84.9914 -42.6756 91.1924 151.527 11.7795 81.5607 161.036 49.4487 156.415 49.8561 -28.6543 34.0369 30.6016 -11.7762 59.3719 153.579 64.8675 114.589 -113.971 8.49098 -5.19713 44.4779 1.73328 0.111293 30.6637 -0.592616 14.9422 -0.740766 7.29272 -90.2608 12.2871 -1.59574 -0.339647 0.617147 -1.60914 -0.269084 -21.9243 -1.41986 -0.803613 -1.91164 -1.41987 -0.803618 75.8782 -51.8134 -121.108 29.9231 -3.08653 41.1487 -3.72904 -17.6894 -22.6785 4.86963 0.262088 6.45386 -97.4565 -36.4863 62.5459 -19.7881 -9.07046 -7.47213 17.772 0.072836 -91.1349 21.7564 2.91827 9.63342 21.2778 4.21015 -3.67774 -7.32241 5.22629 3.488 
74.2759 104.77 0.315944 85.8671 -40.2965 90.6169 153.337 9.32797 83.4214 166.055 45.0272 160.886 47.8261 -29.1724 32.1966 29.6287 -14.0062 56.5496 154.773 65.6605 114.736 -106.497 8.43864 -4.38037 52.6836 -0.217915 -0.624098 38.2644 0.89828 15.5324 -1.01209 7.44801 -90.0691 11.9801 -2.0449 0.0837338 0.310755 -2.03923 0.17368 -22.2368 -1.97549 -0.534968 -2.22419 -1.9755 -0.534983 78.9901 -48.5067 -118.005 33.4666 0.214617 51.9936 -4.37376 -12.4263 -21.4348 9.16702 0.476606 3.8968 -95.8338 -33.8464 64.1669 -16.0413 -14.6526 -8.47229 16.7581 -3.76184 -103.929 22.4325 3.13672 10.2342 18.0254 3.92007 -5.0808 -5.25518 5.37238 5.45422 
86.8544 105.845 11.043 84.2266 -39.3593 88.3106 150.845 10.9096 87.0756 175.163 46.5746 161.42 39.8107 -30.8203 29.6105 30.9174 -18.2544 67.0036 165.474 61.6477 106.6 -93.8947 7.75803 -3.02853 57.7403 -1.01049 -0.42764 39.8609 1.20775 15.3176 -1.33803 7.39124 -89.9024 12.1 -2.61376 0.481969 0.431487 -2.59001 0.596605 -22.1245 -2.63768 -0.326409 -2.11185 -2.63769 -0.32641 79.1091 -47.3223 -118.338 30.9407 0.889459 59.7175 -3.28914 -8.77555 -21.1068 9.00605 0.530282 3.69915 -93.7056 -33.0383 67.6181 -15.5654 -19.4076 -7.58694 16.465 -3.54444 -110.586 23.6538 3.33816 10.3983 17.5072 4.65379 -6.31384 -5.83276 6.39459 6.75686 
